<?xml version="1.0" encoding="UTF-8"?>
<!-- Generated by jsxcad -->
<!DOCTYPE svg PUBLIC "-//W3C//DTD SVG 1.1 Tiny//EN" "http://www.w3.org/Graphics/SVG/1.1/DTD/svg11-tiny.dtd">
<svg viewBox="-250 -250 500 500" width="500" height="500" xmlns="http://www.w3.org/2000/svg"><path d="M-66.94465500201383,-90.15403471713594L-69.31067557888137,-88.26211957671099L-70.7996093717331,-86.08580809687328zM-66.94465500201383,-90.15403471713594L-70.7996093717331,-86.08580809687328L-71.15244099153517,-83.99686875058684zM-66.94465500201383,-90.15403471713594L67.2824162116266,-112.840779678893L-64.1062892062578,-91.4399703098936zM-66.94465500201383,-90.15403471713594L69.97285170078318,-112.41206038323656L67.2824162116266,-112.840779678893zM-66.94465500201383,-90.15403471713594L71.77668429388243,-111.11624199913868L69.97285170078318,-112.41206038323656zM-66.94465500201383,-90.15403471713594L72.37632091899044,-109.17165584534457L71.77668429388243,-111.11624199913868zM-66.94465500201383,-90.15403471713594L-71.15244099153517,-83.99686875058684L-85.75968608499345,151.4352747575875zM-66.94465500201383,-90.15403471713594L90.91315134973175,88.23546569763508L72.37632091899044,-109.17165584534457zM-66.94465500201383,-90.15403471713594L-85.75968608499345,151.4352747575875L-84.98364317048438,154.26983062200074zM-66.94465500201383,-90.15403471713594L-84.98364317048438,154.26983062200074L-82.82857009704232,156.19765264152628zM-66.94465500201383,-90.15403471713594L-82.82857009704232,156.19765264152628L-79.66072919563467,156.87514465294012zM-66.94465500201383,-90.15403471713594L-79.66072919563467,156.87514465294012L-76.03099923038342,156.17617559147058zM-66.94465500201383,-90.15403471713594L-76.03099923038342,156.17617559147058L83.82021171093157,96.26727752213766zM-66.94465500201383,-90.15403471713594L89.82505400959167,91.43796069460043L90.91315134973175,88.23546569763508zM-66.94465500201383,-90.15403471713594L87.31509155744843,94.28274234912767L89.82505400959167,91.43796069460043zM-66.94465500201383,-90.15403471713594L83.82021171093157,96.26727752213766L87.31509155744843,94.28274234912767z" style="fill:rgb(83,212,212)"/></svg>
